<svg xmlns="http://www.w3.org/2000/svg" viewBox="0 0 576 56">
  <defs>
    <pattern id="brick" width="8" height="8" patternUnits="userSpaceOnUse">
      <rect x="1" y="0.75" width="6" height="2.5" rx="0.5" fill="#fff"/>
      <rect x="-3" y="4.75" width="6" height="2.5" rx="0.5" fill="#fff"/>
      <rect x="5" y="4.75" width="6" height="2.5" rx="0.5" fill="#fff"/>
    </pattern>
  </defs>
  <path d="M0 0h8v8h-8zM8 0h8v8h-8zM16 0h8v8h-8zM40 0h8v8h-8zM64 0h8v8h-8zM80 0h8v8h-8zM112 0h8v8h-8zM128 0h8v8h-8zM136 0h8v8h-8zM144 0h8v8h-8zM152 0h8v8h-8zM168 0h8v8h-8zM176 0h8v8h-8zM184 0h8v8h-8zM192 0h8v8h-8zM208 0h8v8h-8zM216 0h8v8h-8zM224 0h8v8h-8zM232 0h8v8h-8zM248 0h8v8h-8zM280 0h8v8h-8zM0 8h8v8h-8zM24 8h8v8h-8zM40 8h8v8h-8zM64 8h8v8h-8zM80 8h8v8h-8zM88 8h8v8h-8zM112 8h8v8h-8zM128 8h8v8h-8zM152 8h8v8h-8zM168 8h8v8h-8zM208 8h8v8h-8zM232 8h8v8h-8zM248 8h8v8h-8zM256 8h8v8h-8zM280 8h8v8h-8zM0 16h8v8h-8zM24 16h8v8h-8zM40 16h8v8h-8zM64 16h8v8h-8zM80 16h8v8h-8zM96 16h8v8h-8zM112 16h8v8h-8zM128 16h8v8h-8zM168 16h8v8h-8zM208 16h8v8h-8zM232 16h8v8h-8zM248 16h8v8h-8zM264 16h8v8h-8zM280 16h8v8h-8zM0 24h8v8h-8zM24 24h8v8h-8zM40 24h8v8h-8zM64 24h8v8h-8zM80 24h8v8h-8zM104 24h8v8h-8zM112 24h8v8h-8zM128 24h8v8h-8zM168 24h8v8h-8zM176 24h8v8h-8zM184 24h8v8h-8zM208 24h8v8h-8zM232 24h8v8h-8zM248 24h8v8h-8zM272 24h8v8h-8zM280 24h8v8h-8zM0 32h8v8h-8zM24 32h8v8h-8zM40 32h8v8h-8zM64 32h8v8h-8zM80 32h8v8h-8zM112 32h8v8h-8zM128 32h8v8h-8zM144 32h8v8h-8zM152 32h8v8h-8zM168 32h8v8h-8zM208 32h8v8h-8zM232 32h8v8h-8zM248 32h8v8h-8zM280 32h8v8h-8zM0 40h8v8h-8zM24 40h8v8h-8zM40 40h8v8h-8zM64 40h8v8h-8zM80 40h8v8h-8zM112 40h8v8h-8zM128 40h8v8h-8zM152 40h8v8h-8zM168 40h8v8h-8zM208 40h8v8h-8zM232 40h8v8h-8zM248 40h8v8h-8zM280 40h8v8h-8zM0 48h8v8h-8zM8 48h8v8h-8zM16 48h8v8h-8zM40 48h8v8h-8zM48 48h8v8h-8zM56 48h8v8h-8zM64 48h8v8h-8zM80 48h8v8h-8zM112 48h8v8h-8zM128 48h8v8h-8zM136 48h8v8h-8zM144 48h8v8h-8zM152 48h8v8h-8zM168 48h8v8h-8zM176 48h8v8h-8zM184 48h8v8h-8zM192 48h8v8h-8zM208 48h8v8h-8zM216 48h8v8h-8zM224 48h8v8h-8zM232 48h8v8h-8zM248 48h8v8h-8zM280 48h8v8h-8zM368 0h8v8h-8zM376 0h8v8h-8zM360 8h8v8h-8zM384 8h8v8h-8zM360 16h8v8h-8zM320 24h8v8h-8zM328 24h8v8h-8zM352 24h8v8h-8zM360 24h8v8h-8zM368 24h8v8h-8zM312 32h8v8h-8zM336 32h8v8h-8zM360 32h8v8h-8zM312 40h8v8h-8zM336 40h8v8h-8zM360 40h8v8h-8zM320 48h8v8h-8zM328 48h8v8h-8zM360 48h8v8h-8zM416 0h8v8h-8zM424 0h8v8h-8zM432 0h8v8h-8zM456 0h8v8h-8zM464 0h8v8h-8zM472 0h8v8h-8zM480 0h8v8h-8zM496 0h8v8h-8zM504 0h8v8h-8zM512 0h8v8h-8zM520 0h8v8h-8zM536 0h8v8h-8zM568 0h8v8h-8zM416 8h8v8h-8zM440 8h8v8h-8zM456 8h8v8h-8zM480 8h8v8h-8zM496 8h8v8h-8zM520 8h8v8h-8zM536 8h8v8h-8zM544 8h8v8h-8zM560 8h8v8h-8zM568 8h8v8h-8zM416 16h8v8h-8zM440 16h8v8h-8zM456 16h8v8h-8zM480 16h8v8h-8zM496 16h8v8h-8zM520 16h8v8h-8zM536 16h8v8h-8zM544 16h8v8h-8zM552 16h8v8h-8zM560 16h8v8h-8zM568 16h8v8h-8zM416 24h8v8h-8zM440 24h8v8h-8zM456 24h8v8h-8zM480 24h8v8h-8zM496 24h8v8h-8zM520 24h8v8h-8zM536 24h8v8h-8zM552 24h8v8h-8zM568 24h8v8h-8zM416 32h8v8h-8zM440 32h8v8h-8zM456 32h8v8h-8zM480 32h8v8h-8zM496 32h8v8h-8zM520 32h8v8h-8zM536 32h8v8h-8zM568 32h8v8h-8zM416 40h8v8h-8zM440 40h8v8h-8zM456 40h8v8h-8zM480 40h8v8h-8zM496 40h8v8h-8zM520 40h8v8h-8zM536 40h8v8h-8zM568 40h8v8h-8zM416 48h8v8h-8zM424 48h8v8h-8zM432 48h8v8h-8zM456 48h8v8h-8zM464 48h8v8h-8zM472 48h8v8h-8zM480 48h8v8h-8zM496 48h8v8h-8zM504 48h8v8h-8zM512 48h8v8h-8zM520 48h8v8h-8zM536 48h8v8h-8zM568 48h8v8h-8z" fill="url(#brick)"/>
</svg>
